G04*
G04 #@! TF.GenerationSoftware,Altium Limited,Altium Designer,22.5.1 (42)*
G04*
G04 Layer_Physical_Order=1*
G04 Layer_Color=255*
%FSLAX25Y25*%
%MOIN*%
G70*
G04*
G04 #@! TF.SameCoordinates,91A7FE34-10BD-4EC3-A0F0-FFE04F3D5F1F*
G04*
G04*
G04 #@! TF.FilePolarity,Positive*
G04*
G01*
G75*
%ADD14C,0.07087*%
%ADD15R,0.07087X0.07087*%
%ADD19R,0.07087X0.07087*%
D14*
X55118Y115157D02*
D03*
X114016Y242126D02*
D03*
X124016D02*
D03*
X134016D02*
D03*
X279528Y88339D02*
D03*
Y45520D02*
D03*
Y198819D02*
D03*
Y133858D02*
D03*
X208661Y50866D02*
D03*
Y60866D02*
D03*
Y70866D02*
D03*
Y80866D02*
D03*
Y90866D02*
D03*
X55118Y60039D02*
D03*
X108268Y139449D02*
D03*
Y179449D02*
D03*
X142480Y188858D02*
D03*
Y178858D02*
D03*
Y168858D02*
D03*
Y158858D02*
D03*
Y148858D02*
D03*
Y138858D02*
D03*
Y128858D02*
D03*
Y118858D02*
D03*
Y108858D02*
D03*
Y98858D02*
D03*
Y88858D02*
D03*
Y78858D02*
D03*
Y68858D02*
D03*
X172480Y198858D02*
D03*
Y188858D02*
D03*
Y178858D02*
D03*
Y168858D02*
D03*
Y158858D02*
D03*
Y148858D02*
D03*
Y138858D02*
D03*
Y128858D02*
D03*
Y118858D02*
D03*
Y108858D02*
D03*
Y98858D02*
D03*
Y88858D02*
D03*
Y78858D02*
D03*
Y68858D02*
D03*
X254095Y135827D02*
D03*
X234095D02*
D03*
X244094Y108268D02*
D03*
Y88583D02*
D03*
X29528Y187008D02*
D03*
Y177008D02*
D03*
X244094Y165354D02*
D03*
X208661Y234567D02*
D03*
Y224567D02*
D03*
Y214567D02*
D03*
Y204567D02*
D03*
X100394Y92520D02*
D03*
X208661Y145669D02*
D03*
Y155669D02*
D03*
X72835Y175197D02*
D03*
D15*
X55118Y105315D02*
D03*
X279528Y188819D02*
D03*
Y143858D02*
D03*
X208661Y40866D02*
D03*
X55118Y50197D02*
D03*
X244094Y185039D02*
D03*
X208661Y194567D02*
D03*
X100394Y73307D02*
D03*
X208661Y135669D02*
D03*
X72835Y194882D02*
D03*
D19*
X144016Y242126D02*
D03*
X142480Y198858D02*
D03*
X29528Y167008D02*
D03*
M02*
