G04*
G04 #@! TF.GenerationSoftware,Altium Limited,Altium Designer,22.5.1 (42)*
G04*
G04 Layer_Physical_Order=2*
G04 Layer_Color=16711680*
%FSLAX25Y25*%
%MOIN*%
G70*
G04*
G04 #@! TF.SameCoordinates,91A7FE34-10BD-4EC3-A0F0-FFE04F3D5F1F*
G04*
G04*
G04 #@! TF.FilePolarity,Positive*
G04*
G01*
G75*
%ADD14C,0.07087*%
%ADD15R,0.07087X0.07087*%
%ADD19R,0.07087X0.07087*%
%ADD20C,0.04724*%
%ADD21C,0.03937*%
%ADD22C,0.03543*%
G36*
X311024Y3937D02*
X3937D01*
Y271654D01*
X39370D01*
Y236221D01*
X78740D01*
Y271654D01*
X236221D01*
Y236221D01*
X275590D01*
Y271654D01*
X311024D01*
Y3937D01*
D02*
G37*
%LPC*%
G36*
X153756Y266920D02*
X126351D01*
X125124Y266799D01*
X123944Y266441D01*
X122856Y265860D01*
X121903Y265078D01*
X109794Y252968D01*
X109012Y252015D01*
X108430Y250927D01*
X108072Y249747D01*
X107952Y248520D01*
Y246514D01*
X107387Y245669D01*
X106823Y244308D01*
X106702Y243701D01*
X114016D01*
Y240551D01*
X106702D01*
X106823Y239944D01*
X107387Y238583D01*
X107726Y238075D01*
Y207172D01*
X82040Y181487D01*
X76885D01*
X76378Y181826D01*
X75017Y182390D01*
X73571Y182677D01*
X73537D01*
X73463Y182717D01*
X73245Y182941D01*
X72736Y185328D01*
X74592Y187441D01*
X80276D01*
Y202323D01*
X65394D01*
Y196336D01*
X62355Y193298D01*
X33507D01*
X33052Y193602D01*
X31698Y194163D01*
X30260Y194449D01*
X28795D01*
X27357Y194163D01*
X26003Y193602D01*
X25288Y193124D01*
X24224Y193020D01*
X23043Y192662D01*
X21956Y192080D01*
X21003Y191298D01*
X15237Y185532D01*
X14455Y184579D01*
X13874Y183492D01*
X13516Y182312D01*
X13395Y181085D01*
Y57386D01*
X13516Y56159D01*
X13874Y54979D01*
X14455Y53891D01*
X15237Y52938D01*
X54906Y13269D01*
X55860Y12487D01*
X56947Y11905D01*
X58127Y11547D01*
X59354Y11426D01*
X273622D01*
X274849Y11547D01*
X276029Y11905D01*
X277117Y12487D01*
X278070Y13269D01*
X293818Y29017D01*
X294600Y29970D01*
X295181Y31057D01*
X295539Y32237D01*
X295660Y33465D01*
Y51181D01*
X295539Y52408D01*
X295181Y53588D01*
X294600Y54676D01*
X293818Y55629D01*
X262506Y86941D01*
Y90224D01*
X266259Y93977D01*
X267041Y94931D01*
X267622Y96018D01*
X267980Y97198D01*
X268101Y98425D01*
Y120079D01*
X267980Y121306D01*
X267622Y122486D01*
X267041Y123573D01*
X266259Y124527D01*
X262322Y128463D01*
X261710Y128966D01*
X261336Y129399D01*
X260751Y132152D01*
X260830Y132541D01*
X261287Y133645D01*
X261408Y134252D01*
X254095D01*
Y137402D01*
X261408D01*
X261287Y138009D01*
X260723Y139370D01*
X260385Y139877D01*
Y147480D01*
X260264Y148707D01*
X259906Y149887D01*
X259325Y150975D01*
X258542Y151928D01*
X250385Y160086D01*
Y161304D01*
X250724Y161811D01*
X251287Y163172D01*
X251406Y163771D01*
X262322Y174686D01*
X263104Y175639D01*
X263685Y176727D01*
X264043Y177907D01*
X264164Y179134D01*
Y192529D01*
X272087D01*
Y181378D01*
X273237D01*
Y151299D01*
X272087D01*
Y136417D01*
X272087D01*
X272087Y133125D01*
X272373Y131688D01*
X272934Y130334D01*
X273237Y129879D01*
Y92318D01*
X272934Y91863D01*
X272373Y90509D01*
X272087Y89071D01*
Y87606D01*
X272373Y86168D01*
X272934Y84814D01*
X273748Y83595D01*
X274784Y82559D01*
X276003Y81744D01*
X277357Y81183D01*
X278795Y80897D01*
X280260D01*
X281698Y81183D01*
X283052Y81744D01*
X284271Y82559D01*
X285307Y83595D01*
X286122Y84814D01*
X286683Y86168D01*
X286969Y87606D01*
Y89071D01*
X286683Y90509D01*
X286122Y91863D01*
X285818Y92318D01*
Y129879D01*
X286122Y130334D01*
X286683Y131688D01*
X286969Y133125D01*
X286969Y136417D01*
X286969D01*
Y151299D01*
X285818D01*
Y181378D01*
X286969D01*
Y196260D01*
X286969D01*
X287008Y198082D01*
X287008Y199556D01*
X286720Y201001D01*
X286157Y202362D01*
X285338Y203587D01*
X284296Y204629D01*
X283071Y205448D01*
X281710Y206012D01*
X281102Y206133D01*
Y198819D01*
X277953D01*
Y206133D01*
X277346Y206012D01*
X275984Y205448D01*
X275477Y205109D01*
X260479D01*
X226574Y239015D01*
X225621Y239797D01*
X224533Y240378D01*
X223353Y240736D01*
X222126Y240857D01*
X212712D01*
X212205Y241196D01*
X210843Y241760D01*
X210236Y241880D01*
Y234567D01*
X207087D01*
Y241880D01*
X206480Y241760D01*
X205118Y241196D01*
X204611Y240857D01*
X182424D01*
X158204Y265078D01*
X157250Y265860D01*
X156163Y266441D01*
X154983Y266799D01*
X153756Y266920D01*
D02*
G37*
%LPD*%
G36*
X136505Y209055D02*
X135363Y206299D01*
X135039D01*
Y204775D01*
X127677D01*
X126146Y204573D01*
X124719Y203982D01*
X123493Y203042D01*
X122749Y202297D01*
X120871Y203061D01*
X120217Y203663D01*
X120306Y204567D01*
Y221653D01*
X122852Y222708D01*
X136505Y209055D01*
D02*
G37*
G36*
X133739Y192612D02*
X135039Y190453D01*
Y188125D01*
X135325Y186688D01*
X135886Y185334D01*
X136701Y184115D01*
X136957Y183858D01*
X136701Y183602D01*
X135886Y182383D01*
X135325Y181029D01*
X135039Y179591D01*
Y178125D01*
X135325Y176688D01*
X135886Y175334D01*
X136701Y174115D01*
X136957Y173858D01*
X136701Y173602D01*
X135886Y172383D01*
X135325Y171029D01*
X135039Y169591D01*
Y168125D01*
X135325Y166688D01*
X135886Y165334D01*
X136701Y164115D01*
X136957Y163858D01*
X136701Y163602D01*
X135886Y162383D01*
X135325Y161029D01*
X135039Y159591D01*
Y158125D01*
X135325Y156688D01*
X135886Y155334D01*
X136701Y154115D01*
X136957Y153858D01*
X136701Y153602D01*
X135886Y152383D01*
X135325Y151029D01*
X135039Y149591D01*
Y148125D01*
X135083Y147904D01*
X133524Y145505D01*
X132980Y145148D01*
X113091D01*
X113011Y145229D01*
X111792Y146043D01*
X110438Y146604D01*
X109001Y146890D01*
X107535D01*
X106097Y146604D01*
X104743Y146043D01*
X103524Y145229D01*
X102488Y144192D01*
X101674Y142973D01*
X101113Y141619D01*
X100827Y140182D01*
Y138716D01*
X100988Y137904D01*
X100055Y136206D01*
X99012Y135148D01*
X79125D01*
Y168907D01*
X84646D01*
X85873Y169027D01*
X87053Y169386D01*
X88140Y169967D01*
X89094Y170749D01*
X98071Y179726D01*
X100520Y178829D01*
X100848Y178607D01*
X101113Y177278D01*
X101674Y175924D01*
X102488Y174706D01*
X103524Y173669D01*
X104743Y172855D01*
X106097Y172294D01*
X107535Y172008D01*
X109001D01*
X110438Y172294D01*
X111792Y172855D01*
X113011Y173669D01*
X114048Y174706D01*
X114862Y175924D01*
X115423Y177278D01*
X115661Y178474D01*
X130128Y192941D01*
X133410D01*
X133739Y192612D01*
D02*
G37*
G36*
X237804Y197744D02*
Y192480D01*
X236653D01*
Y186494D01*
X227836Y177676D01*
X227053Y176723D01*
X226472Y175636D01*
X226114Y174455D01*
X225993Y173228D01*
Y156721D01*
X223237Y155579D01*
X218857Y159960D01*
X217904Y160742D01*
X216817Y161323D01*
X215637Y161681D01*
X214409Y161802D01*
X212948D01*
X212205Y162298D01*
X210843Y162862D01*
X210236Y162983D01*
Y155669D01*
X207087D01*
Y162983D01*
X206480Y162862D01*
X205118Y162298D01*
X204611Y161959D01*
X193480D01*
X193005Y162538D01*
X192258Y164635D01*
X201861Y174238D01*
X202801Y175463D01*
X203392Y176890D01*
X203594Y178421D01*
Y187126D01*
X216102D01*
Y202008D01*
X216102D01*
X216102Y205300D01*
X215816Y206737D01*
X215255Y208091D01*
X214441Y209310D01*
X214184Y209567D01*
X214441Y209824D01*
X215255Y211042D01*
X215816Y212397D01*
X216102Y213834D01*
Y215300D01*
X216090Y215363D01*
X216269Y215732D01*
X218581Y216968D01*
X237804Y197744D01*
D02*
G37*
G36*
X164331Y185277D02*
X165557Y184337D01*
X165474Y181388D01*
X165325Y181029D01*
X165039Y179591D01*
Y178125D01*
X165325Y176688D01*
X165886Y175334D01*
X166701Y174115D01*
X166957Y173858D01*
X166701Y173602D01*
X165886Y172383D01*
X165325Y171029D01*
X165039Y169591D01*
Y168125D01*
X165325Y166688D01*
X165886Y165334D01*
X166701Y164115D01*
X166957Y163858D01*
X166701Y163602D01*
X165886Y162383D01*
X165325Y161029D01*
X165039Y159591D01*
Y158125D01*
X165325Y156688D01*
X165886Y155334D01*
X166701Y154115D01*
X166957Y153858D01*
X166701Y153602D01*
X165886Y152383D01*
X165325Y151029D01*
X165039Y149591D01*
Y148125D01*
X165325Y146688D01*
X165886Y145334D01*
X166701Y144115D01*
X166929Y143886D01*
X166670Y143627D01*
X165851Y142402D01*
X165287Y141040D01*
X165000Y139595D01*
Y139132D01*
X162337Y137897D01*
X158810Y141424D01*
Y187198D01*
X161356Y188252D01*
X164331Y185277D01*
D02*
G37*
G36*
X66545Y134710D02*
X66412Y134670D01*
X65324Y134088D01*
X64371Y133306D01*
X53534Y122469D01*
X52936Y122350D01*
X51575Y121786D01*
X51068Y121448D01*
X48966D01*
X47738Y121327D01*
X46558Y120969D01*
X45471Y120387D01*
X44518Y119605D01*
X38364Y113451D01*
X35818Y114506D01*
Y159567D01*
X36968D01*
Y170718D01*
X66545D01*
Y134710D01*
D02*
G37*
G36*
X119528Y120022D02*
X99419Y99913D01*
X98223Y99675D01*
X96869Y99114D01*
X95855Y98436D01*
X89065D01*
X78003Y109499D01*
X76777Y110439D01*
X75350Y111030D01*
X73819Y111232D01*
X64297D01*
X64031Y111465D01*
X63126Y112656D01*
X62958Y113450D01*
X63838Y114982D01*
X71424Y122568D01*
X118474D01*
X119528Y120022D01*
D02*
G37*
G36*
X226783Y134243D02*
X226902Y133645D01*
X227466Y132283D01*
X227804Y131776D01*
Y125704D01*
X227925Y124477D01*
X228283Y123296D01*
X228864Y122209D01*
X229647Y121256D01*
X233750Y117153D01*
X233358Y115318D01*
X232789Y114216D01*
X231966Y113966D01*
X230878Y113385D01*
X229925Y112602D01*
X214479Y97156D01*
X212712D01*
X212205Y97495D01*
X210843Y98059D01*
X210236Y98180D01*
Y90866D01*
X207087D01*
Y98180D01*
X206480Y98059D01*
X205118Y97495D01*
X203893Y96676D01*
X202851Y95635D01*
X202032Y94409D01*
X201469Y93048D01*
X201181Y91603D01*
Y90129D01*
X201469Y88684D01*
X202032Y87323D01*
X202851Y86098D01*
X203111Y85838D01*
X202882Y85609D01*
X202067Y84391D01*
X201506Y83037D01*
X201220Y81599D01*
Y81478D01*
X198465Y80336D01*
X185759Y93042D01*
X184533Y93982D01*
X184416Y94031D01*
X183636Y97011D01*
X183674Y97186D01*
X202146Y115659D01*
X203087Y116884D01*
X203678Y118311D01*
X203879Y119842D01*
Y122520D01*
X209588Y128228D01*
X216102D01*
Y141026D01*
X218858Y142167D01*
X226783Y134243D01*
D02*
G37*
G36*
X133959Y96836D02*
X135535Y96183D01*
X135886Y95334D01*
X136701Y94115D01*
X136957Y93858D01*
X136701Y93602D01*
X135886Y92383D01*
X135325Y91029D01*
X135039Y89591D01*
Y88125D01*
X135325Y86688D01*
X135886Y85334D01*
X136701Y84115D01*
X136957Y83858D01*
X136701Y83602D01*
X135886Y82383D01*
X135325Y81029D01*
X135039Y79591D01*
Y78125D01*
X135325Y76688D01*
X135886Y75334D01*
X136701Y74115D01*
X136957Y73858D01*
X136701Y73602D01*
X135886Y72383D01*
X135325Y71029D01*
X135039Y69591D01*
Y68125D01*
X135325Y66688D01*
X135886Y65334D01*
X136701Y64115D01*
X137737Y63078D01*
X137930Y62949D01*
X137094Y60194D01*
X85941D01*
X84887Y62740D01*
X89537Y67390D01*
X92953D01*
Y65866D01*
X107835D01*
Y72380D01*
X132454Y96999D01*
X133959Y96836D01*
D02*
G37*
G36*
X82430Y88336D02*
X83656Y87396D01*
X85083Y86804D01*
X86614Y86603D01*
X95855D01*
X96869Y85926D01*
X98223Y85365D01*
X99429Y85125D01*
X100148Y83521D01*
X100451Y82551D01*
X99016Y80748D01*
X92953D01*
Y79224D01*
X87087D01*
X85555Y79022D01*
X84128Y78431D01*
X82903Y77491D01*
X65354Y59942D01*
X63299Y60564D01*
X62547Y61033D01*
X62311Y62221D01*
X61747Y63582D01*
X60928Y64808D01*
X59886Y65850D01*
X58661Y66668D01*
X57300Y67232D01*
X56693Y67353D01*
Y60039D01*
X53543D01*
Y67353D01*
X52936Y67232D01*
X51575Y66668D01*
X51068Y66329D01*
X46897D01*
X45660Y67566D01*
Y96090D01*
X47677Y97874D01*
X62559D01*
Y99398D01*
X71368D01*
X82430Y88336D01*
D02*
G37*
G36*
X275773Y55883D02*
X275167Y52990D01*
X273476Y52508D01*
X273302Y52523D01*
X250997Y74827D01*
X251218Y76541D01*
X254069Y77586D01*
X275773Y55883D01*
D02*
G37*
G36*
X157993Y124450D02*
X158946Y123668D01*
X160034Y123086D01*
X161214Y122728D01*
X162441Y122608D01*
X162996D01*
X163567Y122221D01*
X165091Y119852D01*
X165039Y119591D01*
Y118125D01*
X165325Y116688D01*
X165886Y115334D01*
X166701Y114115D01*
X166957Y113858D01*
X166701Y113602D01*
X165886Y112383D01*
X165325Y111029D01*
X165039Y109591D01*
Y108125D01*
X165325Y106688D01*
X165886Y105334D01*
X166701Y104115D01*
X166957Y103858D01*
X166701Y103602D01*
X165886Y102383D01*
X165325Y101029D01*
X165039Y99591D01*
Y98125D01*
X165325Y96688D01*
X165886Y95334D01*
X166701Y94115D01*
X166957Y93858D01*
X166701Y93602D01*
X165886Y92383D01*
X165325Y91029D01*
X165039Y89591D01*
Y88125D01*
X165325Y86688D01*
X165886Y85334D01*
X166701Y84115D01*
X166957Y83858D01*
X166701Y83602D01*
X165886Y82383D01*
X165325Y81029D01*
X165039Y79591D01*
Y78125D01*
X165325Y76688D01*
X165886Y75334D01*
X166701Y74115D01*
X166957Y73858D01*
X166701Y73602D01*
X165886Y72383D01*
X165325Y71029D01*
X165039Y69591D01*
Y68125D01*
X165325Y66688D01*
X165886Y65334D01*
X166701Y64115D01*
X167737Y63078D01*
X168956Y62264D01*
X170310Y61703D01*
X171506Y61465D01*
X183642Y49329D01*
X182587Y46783D01*
X172923D01*
X149873Y69833D01*
X149635Y71029D01*
X149074Y72383D01*
X148260Y73602D01*
X148003Y73858D01*
X148260Y74115D01*
X149074Y75334D01*
X149635Y76688D01*
X149921Y78125D01*
Y79591D01*
X149635Y81029D01*
X149074Y82383D01*
X148260Y83602D01*
X148003Y83858D01*
X148260Y84115D01*
X149074Y85334D01*
X149635Y86688D01*
X149921Y88125D01*
Y89591D01*
X149635Y91029D01*
X149074Y92383D01*
X148260Y93602D01*
X148003Y93858D01*
X148260Y94115D01*
X149074Y95334D01*
X149635Y96688D01*
X149921Y98125D01*
Y99591D01*
X149635Y101029D01*
X149074Y102383D01*
X148260Y103602D01*
X148003Y103858D01*
X148260Y104115D01*
X149074Y105334D01*
X149635Y106688D01*
X149921Y108125D01*
Y109591D01*
X149635Y111029D01*
X149074Y112383D01*
X148260Y113602D01*
X148003Y113858D01*
X148260Y114115D01*
X149074Y115334D01*
X149635Y116688D01*
X149921Y118125D01*
Y119591D01*
X149635Y121029D01*
X149074Y122383D01*
X148260Y123602D01*
X148031Y123830D01*
X148291Y124090D01*
X149109Y125315D01*
X149673Y126676D01*
X149961Y128121D01*
Y128585D01*
X152624Y129819D01*
X157993Y124450D01*
D02*
G37*
G36*
X237368Y85078D02*
X237628Y84867D01*
X237804Y84603D01*
Y78740D01*
X237804Y78740D01*
Y72835D01*
X237925Y71608D01*
X238283Y70428D01*
X238864Y69340D01*
X239647Y68387D01*
X266962Y41072D01*
X267915Y40290D01*
X269002Y39708D01*
X270182Y39350D01*
X270211Y39348D01*
X271287Y36555D01*
X271286Y36525D01*
X267429Y32668D01*
X218545D01*
X216102Y33425D01*
Y48307D01*
X216102D01*
X216102Y51599D01*
X215816Y53036D01*
X215255Y54391D01*
X214441Y55609D01*
X214184Y55866D01*
X214441Y56123D01*
X215255Y57341D01*
X215816Y58696D01*
X216102Y60133D01*
Y61599D01*
X215816Y63037D01*
X215255Y64391D01*
X214441Y65609D01*
X214184Y65866D01*
X214441Y66123D01*
X215255Y67342D01*
X215816Y68696D01*
X216102Y70133D01*
Y71599D01*
X216058Y71820D01*
X217618Y74219D01*
X218162Y74576D01*
X220834D01*
X222062Y74697D01*
X223242Y75055D01*
X224329Y75636D01*
X225282Y76418D01*
X234393Y85529D01*
X237368Y85078D01*
D02*
G37*
G36*
X166289Y36682D02*
X167514Y35742D01*
X168282Y35424D01*
X167734Y32668D01*
X147598D01*
Y51772D01*
X150145Y52826D01*
X166289Y36682D01*
D02*
G37*
G36*
X77685Y51937D02*
Y32668D01*
X65547D01*
X58006Y40210D01*
X59060Y42756D01*
X62559D01*
Y44280D01*
X63976D01*
X65508Y44482D01*
X66935Y45073D01*
X68160Y46013D01*
X75139Y52992D01*
X77685Y51937D01*
D02*
G37*
D14*
X55118Y115157D02*
D03*
X114016Y242126D02*
D03*
X124016D02*
D03*
X134016D02*
D03*
X279528Y88339D02*
D03*
Y45520D02*
D03*
Y198819D02*
D03*
Y133858D02*
D03*
X208661Y50866D02*
D03*
Y60866D02*
D03*
Y70866D02*
D03*
Y80866D02*
D03*
Y90866D02*
D03*
X55118Y60039D02*
D03*
X108268Y139449D02*
D03*
Y179449D02*
D03*
X142480Y188858D02*
D03*
Y178858D02*
D03*
Y168858D02*
D03*
Y158858D02*
D03*
Y148858D02*
D03*
Y138858D02*
D03*
Y128858D02*
D03*
Y118858D02*
D03*
Y108858D02*
D03*
Y98858D02*
D03*
Y88858D02*
D03*
Y78858D02*
D03*
Y68858D02*
D03*
X172480Y198858D02*
D03*
Y188858D02*
D03*
Y178858D02*
D03*
Y168858D02*
D03*
Y158858D02*
D03*
Y148858D02*
D03*
Y138858D02*
D03*
Y128858D02*
D03*
Y118858D02*
D03*
Y108858D02*
D03*
Y98858D02*
D03*
Y88858D02*
D03*
Y78858D02*
D03*
Y68858D02*
D03*
X254095Y135827D02*
D03*
X234095D02*
D03*
X244094Y108268D02*
D03*
Y88583D02*
D03*
X29528Y187008D02*
D03*
Y177008D02*
D03*
X244094Y165354D02*
D03*
X208661Y234567D02*
D03*
Y224567D02*
D03*
Y214567D02*
D03*
Y204567D02*
D03*
X100394Y92520D02*
D03*
X208661Y145669D02*
D03*
Y155669D02*
D03*
X72835Y175197D02*
D03*
D15*
X55118Y105315D02*
D03*
X279528Y188819D02*
D03*
Y143858D02*
D03*
X208661Y40866D02*
D03*
X55118Y50197D02*
D03*
X244094Y185039D02*
D03*
X208661Y194567D02*
D03*
X100394Y73307D02*
D03*
X208661Y135669D02*
D03*
X72835Y194882D02*
D03*
D19*
X144016Y242126D02*
D03*
X142480Y198858D02*
D03*
X29528Y167008D02*
D03*
D20*
X59354Y17717D02*
X273622D01*
X62942Y26378D02*
X270034D01*
X29528Y59792D02*
Y167008D01*
X19685Y57386D02*
X59354Y17717D01*
X19685Y57386D02*
Y181085D01*
X29528Y59792D02*
X62942Y26378D01*
X25451Y186850D02*
X29370D01*
X29528Y187008D01*
X19685Y181085D02*
X25451Y186850D01*
X243982Y108381D02*
Y115817D01*
Y108155D02*
X244094Y108268D01*
X243982Y108381D02*
X244094Y108268D01*
X234373Y108155D02*
X243982D01*
X214409Y155512D02*
X234095Y135827D01*
X255315Y91929D02*
X261811Y98425D01*
X255315Y85236D02*
Y91929D01*
X254667D02*
X255315D01*
X244094Y72835D02*
Y78740D01*
X244094Y78740D02*
Y88583D01*
X244094Y78740D02*
X244094Y78740D01*
X244094Y165354D02*
X257874Y179134D01*
X257874Y198819D02*
X257874D01*
X279528Y143858D02*
Y188819D01*
X257874Y198819D02*
X279528D01*
X257874Y198819D02*
X257874Y198819D01*
X257874Y179134D02*
Y198819D01*
X254095Y135827D02*
Y147480D01*
X244094Y157480D02*
X254095Y147480D01*
X244094Y127953D02*
Y143701D01*
X72835Y175197D02*
X84646D01*
X72835Y128858D02*
Y175197D01*
X72835Y175197D01*
X64961Y187008D02*
X72835Y194882D01*
X72675Y175197D02*
X72835D01*
X70864Y177008D02*
X72675Y175197D01*
X29528Y177008D02*
X70864D01*
X29528Y187008D02*
X64961D01*
X234095Y125704D02*
Y135827D01*
X244094Y127953D02*
X248031Y124016D01*
X257874D01*
X234095Y125704D02*
X243982Y115817D01*
X257874Y124016D02*
X261811Y120079D01*
X279528Y88339D02*
Y133858D01*
X261811Y98425D02*
Y120079D01*
X238394Y98425D02*
X240018D01*
X248171Y98425D02*
X254667Y91929D01*
X240018Y98425D02*
X248171D01*
X240018Y98425D02*
X240018Y98425D01*
X108268Y139449D02*
X108481D01*
X109071Y138858D01*
X108268Y139449D02*
X108268Y139449D01*
X208661Y80866D02*
X220834D01*
X217084Y90866D02*
X234373Y108155D01*
X208661Y90866D02*
X217084D01*
X220834Y80866D02*
X238394Y98425D01*
X55118Y115157D02*
X68819Y128858D01*
X55118Y60039D02*
X55118Y60039D01*
X39370Y64961D02*
X44291Y60039D01*
X55118D01*
X39370Y64961D02*
Y105562D01*
X48966Y115157D01*
X55118D01*
X55118Y115157D01*
X146839Y212598D02*
X152520Y206918D01*
X124016Y230440D02*
X141857Y212598D01*
X146839D01*
X208819Y155512D02*
X214409D01*
X208661Y155669D02*
X208819Y155512D01*
X193211Y155669D02*
X208661D01*
X244094Y157480D02*
Y165354D01*
X232283Y173228D02*
X244094Y185039D01*
X232283Y155512D02*
X244094Y143701D01*
X232283Y155512D02*
Y173228D01*
X172480Y138858D02*
X172638Y139016D01*
X176557D02*
X193211Y155669D01*
X172638Y139016D02*
X176557D01*
X72835Y128858D02*
X72835Y128858D01*
X109071Y138858D02*
X142480D01*
X162441Y128898D02*
X172441D01*
X152520Y138819D02*
X162441Y128898D01*
X72835Y128858D02*
X142480D01*
X68819D02*
X72835D01*
X142480Y138858D02*
X142520Y138819D01*
X152520D01*
X172441Y128898D02*
X172480Y128858D01*
Y118858D02*
Y128858D01*
X255315Y85236D02*
X289370Y51181D01*
X152520Y138819D02*
Y206918D01*
X222126Y234567D02*
X257874Y198819D01*
X84646Y175197D02*
X114016Y204567D01*
Y242991D01*
X271410Y45520D02*
X279528D01*
X244094Y72835D02*
X271410Y45520D01*
X244094Y185039D02*
Y200349D01*
X220034Y224409D02*
X244094Y200349D01*
X289370Y33465D02*
Y51181D01*
X273622Y17717D02*
X289370Y33465D01*
X270034Y26378D02*
X279309Y35652D01*
Y45301D01*
X279528Y45520D01*
X124016Y230440D02*
Y242126D01*
X179819Y234567D02*
X208661D01*
Y224567D02*
X208819Y224409D01*
X220034D01*
X177552Y224567D02*
X208661D01*
Y234567D02*
X222126D01*
X177552Y224567D02*
Y224585D01*
X150168Y251968D02*
X177552Y224585D01*
X114242Y243217D02*
Y248520D01*
X124173Y246203D02*
X129939Y251968D01*
X153756Y260630D02*
X179819Y234567D01*
X124016Y242126D02*
X124173Y242283D01*
Y246203D01*
X129939Y251968D02*
X150168D01*
X126351Y260630D02*
X153756D01*
X114242Y248520D02*
X126351Y260630D01*
X114016Y242991D02*
X114242Y243217D01*
D21*
X197963Y124970D02*
X208661Y135669D01*
X197963Y119842D02*
Y124970D01*
X189559Y132005D02*
X202672Y145118D01*
X189559Y122574D02*
Y132005D01*
X108268Y179449D02*
X127677Y198858D01*
X180816Y78482D02*
X198431Y60866D01*
X181575Y88858D02*
X199567Y70866D01*
X198431Y60866D02*
X208661D01*
X172857Y78482D02*
X180816D01*
X172480Y88858D02*
X181575D01*
X199567Y70866D02*
X208661D01*
X173935Y99461D02*
X177581D01*
X197963Y119842D01*
X176446Y109461D02*
X189559Y122574D01*
X173083Y109461D02*
X176446D01*
X55118Y105315D02*
X73819D01*
X172480Y198858D02*
Y212552D01*
X156292Y228740D02*
X172480Y212552D01*
X153031Y220866D02*
X161303Y212594D01*
X168515Y189461D02*
X171878D01*
X161303Y196672D02*
X168515Y189461D01*
X161303Y196672D02*
Y212594D01*
X127677Y198858D02*
X142480D01*
X198848Y204567D02*
X208661D01*
X194501Y214567D02*
X208661D01*
X181929Y201995D02*
X194501Y214567D01*
X189803Y195522D02*
X198848Y204567D01*
X202672Y145118D02*
X208110D01*
X199983Y194567D02*
X208661D01*
X208110Y145118D02*
X208661Y145669D01*
X197677Y192261D02*
X199983Y194567D01*
X189803Y181683D02*
Y195522D01*
X178717Y159461D02*
X197677Y178421D01*
X177581Y169461D02*
X189803Y181683D01*
X197677Y178421D02*
Y192261D01*
X176446Y179461D02*
X181929Y184944D01*
X171878Y189461D02*
X172480Y188858D01*
X173935Y169461D02*
X177581D01*
X172480Y168858D02*
X173333D01*
X173935Y169461D01*
X172480Y178858D02*
X173083Y179461D01*
X176446D01*
X173935Y159461D02*
X178717D01*
X172480Y158858D02*
X173333D01*
X173935Y159461D01*
X100394Y92520D02*
X126732Y118858D01*
X87087Y73307D02*
X100394D01*
X135568Y108482D01*
X126732Y118858D02*
X142480D01*
X135568Y108482D02*
X142104D01*
X142480Y108858D01*
X86614Y92520D02*
X100394D01*
X100394Y92520D01*
X73819Y105315D02*
X86614Y92520D01*
X172480Y78858D02*
X172857Y78482D01*
X172480Y98858D02*
X173333D01*
X173935Y99461D01*
X172480Y108858D02*
X173083Y109461D01*
X181929Y184944D02*
Y201995D01*
X190472Y50866D02*
X208661D01*
X172480Y68858D02*
X190472Y50866D01*
X142480Y68858D02*
X170473Y40866D01*
X208661D01*
X55118Y50197D02*
X63976D01*
X87087Y73307D01*
X134016Y232132D02*
Y242126D01*
X144016Y233268D02*
X148543Y228740D01*
X144016Y233268D02*
Y242126D01*
X148543Y228740D02*
X156292D01*
X145282Y220866D02*
X153031D01*
X134016Y232132D02*
X145282Y220866D01*
D22*
X140157Y52753D02*
Y37008D01*
Y52753D02*
X134160Y37008D01*
X128162Y52753D02*
X134160Y37008D01*
X128162Y52753D02*
Y37008D01*
X111667D02*
X117665Y52753D01*
X123663Y37008D01*
X121414Y42256D02*
X113916D01*
X102745Y52753D02*
Y37008D01*
X107993Y52753D02*
X97497D01*
X85126Y50503D02*
X86626Y52003D01*
X88875Y52753D01*
X91874D01*
X94123Y52003D01*
X95623Y50503D01*
Y49004D01*
X94873Y47504D01*
X94123Y46755D01*
X92624Y46005D01*
X88125Y44505D01*
X86626Y43756D01*
X85876Y43006D01*
X85126Y41506D01*
Y39257D01*
X86626Y37758D01*
X88875Y37008D01*
X91874D01*
X94123Y37758D01*
X95623Y39257D01*
M02*
