M48
;Layer_Color=9474304
;FILE_FORMAT=2:4
METRIC,LZ
;TYPE=PLATED
T1F00S00C0.9000
%
T01
X14Y1275
X53Y1292
Y1038
X71Y11562
Y22438
X62Y225
Y275
X6454Y345
X5946
X62Y42
Y47
X71Y4796
Y505
Y3654
Y34
X53Y3446
Y37
Y3954
Y4942
Y5196
X4381Y5051
Y4797
Y4543
Y4289
Y4035
Y3781
Y3527
Y3273
Y3019
Y2765
Y2511
Y2257
Y2003
Y1749
X3619
Y2003
Y2257
Y2511
Y2765
Y3019
Y3273
Y3527
Y3781
Y4035
Y4289
Y4543
Y4797
Y5051
X275Y4558
X185Y445
Y495
X275Y3542
X255Y235
Y1862
X53Y18
Y1546
Y2054
Y2308
X14Y2675
Y2925
Y1525
X075Y4242
Y4496
Y475
X2896Y615
X315
X3404
X3658
X53Y5958
Y5704
Y545
M30
